<?xml version="1.0" encoding="utf-8"?>
<svg viewBox="0 0 500 500" xmlns="http://www.w3.org/2000/svg">
  <g transform="matrix(0.829351, 0, 0, 0.829351, 37.174027, 23.522154)" style="">
    <g>
      <path d="M411.114,100.885c-28.078-28.078-44.876-53.48-51.771-64.902l-90.633,10.29c12.466,20.185,41.253,62.768,87.751,109.265 c46.494,46.494,89.075,75.281,109.265,87.751l10.291-90.632C464.594,145.762,439.192,128.964,411.114,100.885z" style="fill: rgb(255, 193, 7);"/>
    </g>
  </g>
  <g transform="matrix(0.829351, 0, 0, 0.829351, 37.174027, 23.522154)" style="">
    <g>
      <path d="M467.171,44.829L422.342,0l-36.331,22.061c6.56,10.6,21.76,33.054,46.317,57.611 c24.551,24.551,47.001,39.748,57.612,46.315L512,89.658L467.171,44.829z" style="fill: rgb(255, 193, 7);"/>
    </g>
  </g>
  <g transform="matrix(0.829351, 0, 0, 0.829351, 37.174027, 23.522154)" style="">
    <g>
      <path d="M335.248,176.751c-45.363-45.363-74.392-86.67-88.992-109.714L0,366.045c0,0,19.806,38.577,63.592,82.363 C107.379,492.194,145.955,512,145.955,512l299.008-246.256C421.919,251.144,380.612,222.115,335.248,176.751z" style="fill: rgb(255, 193, 7);"/>
    </g>
  </g>
  <g transform="matrix(0.829351, 0, 0, 0.829351, 37.174027, 23.522154)" style=""/>
  <g transform="matrix(0.829351, 0, 0, 0.829351, 37.174027, 23.522154)" style=""/>
  <g transform="matrix(0.829351, 0, 0, 0.829351, 37.174027, 23.522154)" style=""/>
  <g transform="matrix(0.829351, 0, 0, 0.829351, 37.174027, 23.522154)" style=""/>
  <g transform="matrix(0.829351, 0, 0, 0.829351, 37.174027, 23.522154)" style=""/>
  <g transform="matrix(0.829351, 0, 0, 0.829351, 37.174027, 23.522154)" style=""/>
  <g transform="matrix(0.829351, 0, 0, 0.829351, 37.174027, 23.522154)" style=""/>
  <g transform="matrix(0.829351, 0, 0, 0.829351, 37.174027, 23.522154)" style=""/>
  <g transform="matrix(0.829351, 0, 0, 0.829351, 37.174027, 23.522154)" style=""/>
  <g transform="matrix(0.829351, 0, 0, 0.829351, 37.174027, 23.522154)" style=""/>
  <g transform="matrix(0.829351, 0, 0, 0.829351, 37.174027, 23.522154)" style=""/>
  <g transform="matrix(0.829351, 0, 0, 0.829351, 37.174027, 23.522154)" style=""/>
  <g transform="matrix(0.829351, 0, 0, 0.829351, 37.174027, 23.522154)" style=""/>
  <g transform="matrix(0.829351, 0, 0, 0.829351, 37.174027, 23.522154)" style=""/>
  <g transform="matrix(0.829351, 0, 0, 0.829351, 37.174027, 23.522154)" style=""/>
</svg>